<svg height="496pt" viewBox="0 0 496 495" width="496pt" xmlns="http://www.w3.org/2000/svg"><path d="m488 432.355469h-24v-248c0-4.414063-3.585938-8-8-8h-88v-120c0-4.414063-3.585938-8-8-8h-12.046875c-35.722656 0-69.320313-15.734375-92.183594-43.175781l-1.625-1.945313c-3.039062-3.644531-9.25-3.644531-12.289062 0l-1.625 1.945313c-22.863281 27.441406-56.460938 43.175781-92.183594 43.175781h-12.046875c-4.414062 0-8 3.585937-8 8v120h-88c-4.414062 0-8 3.585937-8 8v248h-24c-4.414062 0-8 3.585937-8 8 0 30.878906 25.121094 56 56 56h384c30.878906 0 56-25.121094 56-56 0-4.414063-3.585938-8-8-8zm-315.664062-170.015625 71.6875 40.96875c1.242187.695312 2.609374 1.046875 3.976562 1.046875s2.734375-.351563 3.96875-1.054688l71.6875-40.96875c15.582031-8.902343 27.640625-22.328125 35.273438-37.984375h57.070312v176h-336v-175.992187h57.0625c7.632812 15.65625 19.691406 29.074219 35.273438 37.984375zm-28.335938-197.984375h4.046875c38.183594 0 74.234375-15.871094 99.953125-43.765625 25.71875 27.894531 61.769531 43.765625 99.953125 43.765625h4.046875v121.578125c0 25.765625-13.902344 49.726562-36.28125 62.511718l-67.71875 38.695313-67.71875-38.695313c-22.378906-12.785156-36.28125-36.746093-36.28125-62.511718zm-96 128h80.433594c.398437 5.441406 1.152344 10.808593 2.527344 16h-58.960938c-4.414062 0-8 3.585937-8 8v192c0 4.417969 3.585938 8 8 8h352c4.414062 0 8-3.582031 8-8v-192c0-4.414063-3.585938-8-8-8h-58.960938c1.375-5.191407 2.128907-10.558594 2.527344-16h80.433594v240h-400zm392 288h-384c-19.320312 0-35.480469-13.765625-39.191406-32h462.382812c-3.710937 18.234375-19.871094 32-39.191406 32zm0 0"/><path d="m184 232.355469h128c4.414062 0 8-3.582031 8-8v-80c0-4.414063-3.585938-8-8-8h-8v-24c0-30.878907-25.121094-56-56-56s-56 25.121093-56 56v24h-8c-4.414062 0-8 3.585937-8 8v80c0 4.417969 3.585938 8 8 8zm24-120c0-22.054688 17.945312-40 40-40s40 17.945312 40 40v24h-16v-24c0-13.230469-10.769531-24-24-24s-24 10.769531-24 24v24h-16zm48 24h-16v-24c0-4.40625 3.59375-8 8-8s8 3.59375 8 8zm48 16v32h-16v16h16v16h-112v-32h16v-16h-16v-16zm0 0"/><path d="m272 192.355469c0-13.230469-10.769531-24-24-24s-24 10.769531-24 24c0 13.234375 10.769531 24 24 24s24-10.765625 24-24zm-24 8c-4.40625 0-8-3.589844-8-8 0-4.40625 3.59375-8 8-8s8 3.59375 8 8c0 4.410156-3.59375 8-8 8zm0 0"/></svg>